<mxfile host="www.draw.io" modified="2019-11-05T12:24:24.533Z" agent="Mozilla/5.0 (Windows NT 10.0; Win64; x64; rv:70.0) Gecko/20100101 Firefox/70.0" etag="X5OyDWtOYJ2l-Z5xHH-m" version="12.2.0" type="github" pages="1">
  <diagram id="H66WL1FMx_O300wLprNO" name="Page-1">
    <mxGraphModel dx="868" dy="467" grid="1" gridSize="10" guides="1" tooltips="1" connect="1" arrows="1" fold="1" page="1" pageScale="1" pageWidth="827" pageHeight="1169" math="0" shadow="0">
      <root>
        <mxCell id="0"/>
        <mxCell id="1" parent="0"/>
        <mxCell id="IiuS1ouKjWj0kzF6646r-2" value="" style="rounded=0;whiteSpace=wrap;html=1;" vertex="1" parent="1">
          <mxGeometry x="220" y="20" width="490" height="340" as="geometry"/>
        </mxCell>
        <mxCell id="IiuS1ouKjWj0kzF6646r-3" value="CREAR NUEVA SALA" style="rounded=1;whiteSpace=wrap;html=1;fillColor=#008a00;strokeColor=#005700;fontColor=#ffffff;" vertex="1" parent="1">
          <mxGeometry x="400" y="310" width="300" height="30" as="geometry"/>
        </mxCell>
        <mxCell id="IiuS1ouKjWj0kzF6646r-4" value="" style="rounded=0;whiteSpace=wrap;html=1;fillColor=#f5f5f5;strokeColor=#666666;fontColor=#333333;" vertex="1" parent="1">
          <mxGeometry x="400" y="80" width="300" height="220" as="geometry"/>
        </mxCell>
        <mxCell id="IiuS1ouKjWj0kzF6646r-5" value="SALAS" style="text;html=1;strokeColor=none;fillColor=none;align=center;verticalAlign=middle;whiteSpace=wrap;rounded=0;" vertex="1" parent="1">
          <mxGeometry x="400" y="60" width="40" height="20" as="geometry"/>
        </mxCell>
        <mxCell id="IiuS1ouKjWj0kzF6646r-6" value="&lt;div align=&quot;left&quot;&gt;Facundo&#39;s Room (2/4)&lt;/div&gt;" style="rounded=1;whiteSpace=wrap;html=1;gradientColor=#ffffff;align=left;" vertex="1" parent="1">
          <mxGeometry x="410" y="90" width="280" height="50" as="geometry"/>
        </mxCell>
        <mxCell id="IiuS1ouKjWj0kzF6646r-7" value="Marcos&#39;s Room (1/4)" style="rounded=1;whiteSpace=wrap;html=1;gradientColor=#ffffff;align=left;" vertex="1" parent="1">
          <mxGeometry x="410" y="145" width="280" height="50" as="geometry"/>
        </mxCell>
        <mxCell id="IiuS1ouKjWj0kzF6646r-8" value="UNIRSE" style="rounded=1;whiteSpace=wrap;html=1;fillColor=#60a917;strokeColor=#2D7600;fontColor=#ffffff;" vertex="1" parent="1">
          <mxGeometry x="600" y="160" width="80" height="30" as="geometry"/>
        </mxCell>
        <mxCell id="IiuS1ouKjWj0kzF6646r-9" value="UNIRSE" style="rounded=1;whiteSpace=wrap;html=1;fillColor=#60a917;strokeColor=#2D7600;fontColor=#ffffff;" vertex="1" parent="1">
          <mxGeometry x="600" y="100" width="80" height="30" as="geometry"/>
        </mxCell>
        <mxCell id="IiuS1ouKjWj0kzF6646r-11" value="" style="rounded=0;whiteSpace=wrap;html=1;fillColor=#f5f5f5;strokeColor=#666666;fontColor=#333333;" vertex="1" parent="1">
          <mxGeometry x="230" y="80" width="160" height="220" as="geometry"/>
        </mxCell>
        <mxCell id="IiuS1ouKjWj0kzF6646r-12" value="JUGADORES EN LINEA" style="text;html=1;strokeColor=none;fillColor=none;align=center;verticalAlign=middle;whiteSpace=wrap;rounded=0;" vertex="1" parent="1">
          <mxGeometry x="230" y="60" width="140" height="20" as="geometry"/>
        </mxCell>
        <mxCell id="IiuS1ouKjWj0kzF6646r-13" value="Facundo" style="rounded=1;whiteSpace=wrap;html=1;fillColor=#b1ddf0;strokeColor=#10739e;" vertex="1" parent="1">
          <mxGeometry x="240" y="85" width="140" height="25" as="geometry"/>
        </mxCell>
        <mxCell id="IiuS1ouKjWj0kzF6646r-15" value="Diego" style="rounded=1;whiteSpace=wrap;html=1;fillColor=#b1ddf0;strokeColor=#10739e;" vertex="1" parent="1">
          <mxGeometry x="240" y="115" width="140" height="25" as="geometry"/>
        </mxCell>
        <mxCell id="IiuS1ouKjWj0kzF6646r-16" value="MartÃ­n" style="rounded=1;whiteSpace=wrap;html=1;fillColor=#b1ddf0;strokeColor=#10739e;" vertex="1" parent="1">
          <mxGeometry x="240" y="145" width="140" height="25" as="geometry"/>
        </mxCell>
        <mxCell id="IiuS1ouKjWj0kzF6646r-17" value="Marcos" style="rounded=1;whiteSpace=wrap;html=1;fillColor=#b1ddf0;strokeColor=#10739e;" vertex="1" parent="1">
          <mxGeometry x="240" y="175" width="140" height="25" as="geometry"/>
        </mxCell>
        <mxCell id="IiuS1ouKjWj0kzF6646r-18" value="David" style="rounded=1;whiteSpace=wrap;html=1;fillColor=#b1ddf0;strokeColor=#10739e;" vertex="1" parent="1">
          <mxGeometry x="240" y="205" width="140" height="25" as="geometry"/>
        </mxCell>
        <mxCell id="IiuS1ouKjWj0kzF6646r-19" value="&lt;div align=&quot;left&quot;&gt;Julieta&#39;s Room (3/4)&lt;br&gt;&lt;/div&gt;" style="rounded=1;whiteSpace=wrap;html=1;align=left;fillColor=#cdeb8b;strokeColor=#36393d;" vertex="1" parent="1">
          <mxGeometry x="410" y="200" width="280" height="45" as="geometry"/>
        </mxCell>
      </root>
    </mxGraphModel>
  </diagram>
</mxfile>
